<?xml version="1.0" encoding="UTF-8"?>
<svg version="1.1" xmlns="http://www.w3.org/2000/svg" width="1024" height="1024">
<path d="M0 0 C337.92 0 675.84 0 1024 0 C1024 337.92 1024 675.84 1024 1024 C686.08 1024 348.16 1024 0 1024 C0 686.08 0 348.16 0 0 Z " fill="#FDFEFD" transform="translate(0,0)"/>
<path d="M0 0 C0.78890625 0.70125 1.5778125 1.4025 2.390625 2.125 C3.17953125 2.805625 3.9684375 3.48625 4.78125 4.1875 C41.21558404 36.15568987 69.34899672 80.98352661 72.95092773 130.33740234 C75.84494532 179.54125599 68.83088935 227.26794022 39.390625 268.125 C38.69453125 269.10597656 37.9984375 270.08695313 37.28125 271.09765625 C31.82389174 278.59668578 25.79526686 285.43698507 19.390625 292.125 C18.86871582 292.67945801 18.34680664 293.23391602 17.80908203 293.80517578 C5.30898342 307.04519055 -8.70599696 318.19808447 -24.609375 327.125 C-25.34043457 327.54491211 -26.07149414 327.96482422 -26.82470703 328.39746094 C-55.99035416 345.024771 -89.37815093 353.58814058 -122.921875 353.5 C-123.70595734 353.49945618 -124.49003967 353.49891235 -125.29788208 353.49835205 C-180.33399897 353.32393765 -229.76954174 329.81382272 -268.390625 291.35546875 C-293.14000305 265.33222566 -309.25057717 232.80466484 -317.359375 198 C-317.55813232 197.15469727 -317.75688965 196.30939453 -317.96166992 195.43847656 C-320.93995503 181.99342781 -321.99531501 168.60928858 -321.921875 154.875 C-321.92005219 154.1588855 -321.91822937 153.442771 -321.91635132 152.70495605 C-321.86625905 140.95236442 -321.06874114 129.63483352 -318.609375 118.125 C-318.43776855 117.28114746 -318.26616211 116.43729492 -318.08935547 115.56787109 C-311.54124649 83.81042031 -297.89028657 53.73583838 -276.609375 29.125 C-274.21870009 26.13665637 -271.8348973 23.14307485 -269.45703125 20.14453125 C-268.84730469 19.47808594 -268.23757813 18.81164062 -267.609375 18.125 C-266.949375 18.125 -266.289375 18.125 -265.609375 18.125 C-265.609375 17.465 -265.609375 16.805 -265.609375 16.125 C-264.24609375 14.75 -264.24609375 14.75 -262.296875 13.125 C-258.93026496 10.27723704 -255.69601028 7.33381615 -252.484375 4.3125 C-185.72193595 -56.30559369 -81.07896685 -57.40728676 0 0 Z " fill="#972E6E" transform="translate(635.609375,356.875)"/>
<path d="M0 0 C6.45660515 4.53032516 10.95118662 10.57656669 15.5859375 16.85546875 C17.65422487 19.54959712 19.78619654 21.86304696 22.1875 24.25 C24.64550432 27.02988583 25.51296805 28.82054268 25.4375 32.5625 C24.2999267 38.10697491 20.52675167 40.96987795 16 44 C15.0409375 44.71414063 14.081875 45.42828125 13.09375 46.1640625 C7.61357844 49.235924 1.22899822 48.55931752 -4.875 48.5625 C-21.34014758 48.62297011 -32.07827131 52.13886727 -44.203125 63.77734375 C-45.89589051 65.48708916 -47.578179 67.2072691 -49.25 68.9375 C-50.095625 69.79279297 -50.94125 70.64808594 -51.8125 71.52929688 C-57.89778874 77.72325148 -63.84177975 84.00327294 -69 91 C-68.30132813 91.13277344 -67.60265625 91.26554687 -66.8828125 91.40234375 C-65.97273437 91.57894531 -65.06265625 91.75554687 -64.125 91.9375 C-63.22007812 92.11152344 -62.31515625 92.28554688 -61.3828125 92.46484375 C-59 93 -59 93 -57 94 C-56.88478735 99.41499441 -57.31798844 104.62915894 -58 110 C-56.68 110.66 -55.36 111.32 -54 112 C-48.19120038 106.81917871 -45.90200735 102.19520025 -45.4375 94.5625 C-45.54026021 89.21162892 -47.27608486 86.65825002 -50.73046875 82.7265625 C-52 81 -52 81 -51.875 78 C-51.58625 77.34 -51.2975 76.68 -51 76 C-49.27263246 77.62866082 -47.62799522 79.27520507 -46 81 C-45.52304687 81.4846875 -45.04609375 81.969375 -44.5546875 82.46875 C-40.7224559 86.93603712 -40.25663575 90.99894054 -40.51171875 96.79296875 C-41.50481897 103.31565096 -43.53796874 109.7219361 -48.45703125 114.2734375 C-51.80513231 116.54664897 -53.94856743 117.14469402 -58 117 C-61.97906074 113.69822619 -62.8638358 112.2254778 -63.4375 107.0625 C-63.19032828 103.17516295 -62.22842688 99.68528064 -61 96 C-63.97 95.505 -63.97 95.505 -67 95 C-66.67902344 95.64582031 -66.35804688 96.29164063 -66.02734375 96.95703125 C-63.30050574 105.03386321 -63.5281793 116.17661776 -67.1875 123.875 C-69.32065191 127.33464974 -71.29482723 130.14741362 -75 132 C-78.5625 132.125 -78.5625 132.125 -82 131 C-86.00922767 126.29006047 -86.63220604 122.54682368 -86.75 116.625 C-86.77964844 115.88894531 -86.80929687 115.15289063 -86.83984375 114.39453125 C-86.90988033 112.5969257 -86.95728119 110.7984621 -87 109 C-88.99541868 108.31974363 -90.99617991 107.65509503 -93 107 C-93.66128906 106.70222656 -94.32257813 106.40445313 -95.00390625 106.09765625 C-98.39053435 105.93196994 -100.48257524 108.35897983 -102.9375 110.4375 C-112.25961238 117.94204395 -122.25225109 123.73866297 -132.97216797 128.99829102 C-142.62134676 133.74620743 -152.02020381 138.71711531 -160.23046875 145.75 C-162 147 -162 147 -165 147 C-164.67386719 146.34 -164.34773438 145.68 -164.01171875 145 C-159.06330567 133.78943585 -158.18671204 122.08731979 -157 110 C-156.34 110 -155.68 110 -155 110 C-154.01 114.455 -154.01 114.455 -153 119 C-152.57074219 118.55011719 -152.14148438 118.10023438 -151.69921875 117.63671875 C-145.74368024 111.86620668 -139.16822647 107.98987665 -131.91674805 104.03393555 C-125.6753686 100.58376364 -120.0081001 97.01215015 -116 91 C-115.70547416 88.61322924 -115.5071783 86.21373906 -115.375 83.8125 C-115.30023437 82.54019531 -115.22546875 81.26789063 -115.1484375 79.95703125 C-115.07496094 78.49330078 -115.07496094 78.49330078 -115 77 C-112.63432605 79.36567395 -112.35655124 80.93717976 -111.4375 84.125 C-107.77161363 94.31244508 -99.42380381 98.71153991 -90.14135742 103.21166992 C-83.81021124 106.33416004 -83.81021124 106.33416004 -82 110 C-81.55859375 113.34765625 -81.55859375 113.34765625 -81.4375 117.0625 C-81.3516451 122.37430558 -81.3516451 122.37430558 -79 127 C-76.6147267 127.12815365 -76.6147267 127.12815365 -74 126 C-69.27259545 119.20435597 -67.67377979 111.10366281 -69 103 C-70.16307583 99.91716574 -71.57333885 96.9683409 -73 94 C-77.3027455 84.81805565 -78.87797359 79.13760588 -75.3984375 69.30859375 C-73.45023408 64.12235202 -71.25871818 59.05721538 -69 54 C-68.48824219 52.82179688 -67.97648438 51.64359375 -67.44921875 50.4296875 C-64.01743891 43.02477663 -59.44045012 37.05345858 -54 31 C-53.4121875 30.3296875 -52.824375 29.659375 -52.21875 28.96875 C-45.60384443 21.85460627 -36.72399229 16.25504025 -26.87109375 15.62890625 C-25.39342821 15.59606924 -23.91548469 15.57411735 -22.4375 15.5625 C-21.69564453 15.52962891 -20.95378906 15.49675781 -20.18945312 15.46289062 C-15.97292797 15.42158895 -14.46928334 15.61615513 -11.08203125 18.38671875 C-9.79598235 20.00091521 -8.51709252 21.62088105 -7.25 23.25 C-3.83935742 25.902722 -0.21915088 25.81969441 4 26 C2.02064898 27.49776785 0.0362425 28.97472935 -2 30.39453125 C-6.40859579 33.52015678 -9.31485574 36.30099754 -12 41 C-10.27009975 40.06385433 -8.54111304 39.12602042 -6.8125 38.1875 C-5.84957031 37.66542969 -4.88664062 37.14335937 -3.89453125 36.60546875 C-1.01702222 35.0579441 -1.01702222 35.0579441 1.5390625 33.32421875 C4.3129799 31.83158701 6.05965198 31.59660804 9.1875 31.625 C10.47720703 31.61339844 10.47720703 31.61339844 11.79296875 31.6015625 C12.88544922 31.79878906 12.88544922 31.79878906 14 32 C16 35 16 35 16 38 C18.666508 35.83411155 18.666508 35.83411155 21 33 C20.87608777 29.80925999 20.28591283 28.33721448 18.21484375 25.89453125 C17.46332031 25.20746094 16.71179688 24.52039063 15.9375 23.8125 C12.60905712 20.65258587 9.71213738 17.46797464 6.9375 13.8125 C-0.29151326 4.64157534 -11.25816652 -2.35650853 -23 -4 C-41.96077993 -5.4603631 -56.16687166 2.60554135 -71.9453125 11.90234375 C-87.64851431 21.13072314 -103.75437663 28.31883279 -120.80712891 34.69506836 C-158.26659021 48.72238246 -192.56903475 71.29130616 -211 108 C-212.38604008 111.17962034 -213.66197257 114.39973778 -214.9375 117.625 C-217.87374809 124.99628219 -221.21778665 130.49657399 -226.2890625 136.63671875 C-241.0966988 154.59247817 -252.1565277 175.7588498 -257.375 198.4375 C-257.54290039 199.15848877 -257.71080078 199.87947754 -257.88378906 200.62231445 C-258.99103841 205.82315792 -259.13614368 210.68516013 -259 216 C-258.74347656 215.30777344 -258.48695313 214.61554688 -258.22265625 213.90234375 C-250.16917772 193.32123196 -235.01214092 169.22073397 -217 156 C-216.34 156 -215.68 156 -215 156 C-213.91081294 172.43865649 -213.91081294 172.43865649 -219.4921875 179.30078125 C-219.98976563 179.86152344 -220.48734375 180.42226563 -221 181 C-223.51506758 184.77260136 -223.69783711 188.29916708 -224.25 192.6875 C-225.55224493 202.05735502 -228.30330827 210.32653234 -232 219 C-223.96930052 214.58877071 -216.99992642 210.61069886 -213.1328125 202.01953125 C-207.12495597 188.76823192 -207.12495597 188.76823192 -200.21679688 185.72314453 C-197.46169526 184.68837364 -194.68760486 183.71543408 -191.90673828 182.75244141 C-180.02662554 178.06428424 -170.80722 166.28914533 -163.140625 156.578125 C-160.9029974 153.88317205 -158.51053299 151.44030829 -156 149 C-161.21205621 165.90801011 -173.11631258 178.51379237 -188.21826172 187.08740234 C-191.02841862 188.526751 -193.98871297 189.56689322 -196.9375 190.6875 C-203.03688988 193.33523998 -204.97357046 196.57841546 -207.53857422 202.60180664 C-211.5856985 212.09833723 -218.50990826 218.50533522 -227.4375 223.3125 C-230.84939723 224.22788706 -233.56889564 223.67276556 -237 223 C-236.6688707 217.59155475 -235.3992204 213.1050023 -233.5625 208 C-231.11741688 201.19448989 -230.18138298 194.75497673 -229.65234375 187.55859375 C-228.90402417 183.47644325 -227.48523103 181.28602769 -225 178 C-224.09541843 176.65166143 -223.1982617 175.29827586 -222.3125 173.9375 C-221.89613281 173.30714844 -221.47976563 172.67679688 -221.05078125 172.02734375 C-219.84729653 169.70537881 -219.40574016 167.57266013 -219 165 C-226.99041774 170.75959045 -231.88616144 177.93435345 -233.68359375 187.72265625 C-233.87050781 188.98980469 -234.05742187 190.25695312 -234.25 191.5625 C-235.49557396 198.80746568 -238.21634063 202.18986336 -243.3671875 207.265625 C-251.97761849 216.20820912 -257.86894438 228.79690257 -260 241 C-260.66 241 -261.32 241 -262 241 C-264.435713 234.08071931 -265.52156407 227.88931284 -265.4375 220.5625 C-265.42505249 219.13296997 -265.42505249 219.13296997 -265.41235352 217.67456055 C-264.63442463 184.33435549 -247.53999439 155.61290974 -228.20825195 129.58789062 C-223.82832943 123.56601864 -220.61409392 117.4027388 -217.5625 110.625 C-213.64118656 102.19051478 -209.64306738 94.43062289 -204 87 C-203.36707031 86.15953125 -202.73414063 85.3190625 -202.08203125 84.453125 C-185.12032642 62.65005532 -163.56080992 46.25000914 -138 35.75 C-136.88987549 35.28529297 -135.77975098 34.82058594 -134.63598633 34.34179688 C-127.55089574 31.39698333 -120.41416842 28.60765881 -113.24829102 25.86645508 C-96.89763108 19.59188232 -81.85356573 12.00436127 -66.73388672 3.2097168 C-44.05230399 -9.93782325 -23.3592297 -14.8329347 0 0 Z " fill="#F9F6F7" transform="translate(644,398)"/>
<path d="M0 0 C1.72736754 1.62866082 3.37200478 3.27520507 5 5 C5.47695313 5.4846875 5.95390625 5.969375 6.4453125 6.46875 C10.2775441 10.93603712 10.74336425 14.99894054 10.48828125 20.79296875 C9.49518103 27.31565096 7.46203126 33.7219361 2.54296875 38.2734375 C-0.80513231 40.54664897 -2.94856743 41.14469402 -7 41 C-10.97906074 37.69822619 -11.8638358 36.2254778 -12.4375 31.0625 C-12.19032828 27.17516295 -11.22842688 23.68528064 -10 20 C-12.31 19.34 -14.62 18.68 -17 18 C-17 17.34 -17 16.68 -17 16 C-9.57142857 15.71428571 -9.57142857 15.71428571 -6 18 C-5.88478735 23.41499441 -6.31798844 28.62915894 -7 34 C-5.68 34.66 -4.36 35.32 -3 36 C2.80879962 30.81917871 5.09799265 26.19520025 5.5625 18.5625 C5.45973979 13.21162892 3.72391514 10.65825002 0.26953125 6.7265625 C-1 5 -1 5 -0.875 2 C-0.58625 1.34 -0.2975 0.68 0 0 Z " fill="#F4E9ED" transform="translate(593,474)"/>
<path d="M0 0 C0.6640625 1.7734375 0.6640625 1.7734375 1 4 C-0.0390625 5.7890625 -0.0390625 5.7890625 -1.625 7.625 C-6.57044081 13.78954948 -9.56869005 20.51904631 -12 28 C-12.66 28.66 -13.32 29.32 -14 30 C-14.33 31.010625 -14.66 32.02125 -15 33.0625 C-16 36 -16 36 -18 37 C-17.41387659 31.79001414 -15.73682238 27.66947344 -13.5 23 C-13.15195312 22.26467041 -12.80390625 21.52934082 -12.4453125 20.77172852 C-8.89038625 13.45308714 -4.5901182 6.70454765 0 0 Z " fill="#443577" transform="translate(347,402)"/>
<path d="M0 0 C2.97 0.495 2.97 0.495 6 1 C5.835 1.99 5.67 2.98 5.5 4 C4.63351886 10.29473065 3.96541627 15.62055503 8 21 C7.01 21 6.02 21 5 21 C5 20.34 5 19.68 5 19 C4.34 19 3.68 19 3 19 C2.67 20.32 2.34 21.64 2 23 C1.93941406 21.75863281 1.87882813 20.51726563 1.81640625 19.23828125 C1.73196377 17.59634423 1.64731764 15.95441768 1.5625 14.3125 C1.52318359 13.49587891 1.48386719 12.67925781 1.44335938 11.83789062 C1.23101997 7.80344189 0.95552078 3.94252691 0 0 Z " fill="#BC3A78" transform="translate(577,493)"/>
<path d="M0 0 C1.875 1.5 1.875 1.5 3 3 C0.69 3.33 -1.62 3.66 -4 4 C-3.51515724 8.64586892 -3.51515724 8.64586892 -2 13 C-4.23288365 12.61502006 -5.83656302 12.10506663 -7.75 10.875 C-9.72423447 7.91364829 -9.37632719 5.44966589 -9 2 C-5.53076119 -0.31282587 -4.07794425 -0.42478586 0 0 Z " fill="#F5EEF2" transform="translate(614,399)"/>
<path d="M0 0 C-1.06863281 0.33 -2.13726562 0.66 -3.23828125 1 C-7.98510209 3.03588792 -9.26363889 6.42828778 -11.1875 11 C-15.00109974 19.73011426 -15.00109974 19.73011426 -19 22 C-17.35184565 17.64416352 -15.36889288 13.51573723 -13.25 9.375 C-12.92773438 8.70726562 -12.60546875 8.03953125 -12.2734375 7.3515625 C-9.6354558 2.23919487 -6.25856745 -2.08618915 0 0 Z " fill="#BF3B79" transform="translate(445,585)"/>
<path d="M0 0 C6.41868512 -0.3633218 6.41868512 -0.3633218 9 1.25 C10 3 10 3 9.6875 5.1875 C9.3471875 6.0846875 9.3471875 6.0846875 9 7 C7.35 7 5.7 7 4 7 C3.566875 6.0409375 3.566875 6.0409375 3.125 5.0625 C2.17176549 2.84793921 2.17176549 2.84793921 0 2 C0 1.34 0 0.68 0 0 Z " fill="#F1E6EB" transform="translate(636,412)"/>
<path d="M0 0 C2.0625 1.6875 2.0625 1.6875 4 4 C3.92687766 6.99801606 3.42308705 8.46654241 1.5625 10.8125 C0 12 0 12 -2 12 C-3.12377697 8.69564916 -2.89554742 6.9493138 -1.5625 3.75 C-1.27503906 3.04359375 -0.98757813 2.3371875 -0.69140625 1.609375 C-0.46324219 1.07828125 -0.23507812 0.5471875 0 0 Z " fill="#B73B7D" transform="translate(662,424)"/>
<path d="M0 0 C0.66 0.33 1.32 0.66 2 1 C0.71034824 2.37562854 -0.62689293 3.70766393 -2 5 C-2.66 5 -3.32 5 -4 5 C-4.33 5.99 -4.66 6.98 -5 8 C-6.48035688 9.28726685 -7.96488598 10.57151986 -9.5 11.79296875 C-11.11655494 13.0937903 -12.57342089 14.4941665 -14 16 C-14 13 -14 13 -12.20703125 10.87890625 C-11.41683594 10.11449219 -10.62664062 9.35007812 -9.8125 8.5625 C-8.58660156 7.37527344 -8.58660156 7.37527344 -7.3359375 6.1640625 C-4.9787957 3.98035588 -2.58144964 1.91526909 0 0 Z M-16 15 C-15.67 15.66 -15.34 16.32 -15 17 C-15.66 16.67 -16.32 16.34 -17 16 C-16.67 15.67 -16.34 15.34 -16 15 Z " fill="#3D2F75" transform="translate(389,356)"/>
<path d="M0 0 C0.66 0 1.32 0 2 0 C1.24984418 7.37653219 0.16558465 14.67831776 -1 22 C-1.33 22 -1.66 22 -2 22 C-2.23576736 14.37685526 -1.83717315 7.41430591 0 0 Z " fill="#4D3371" transform="translate(318,470)"/>
<path d="M0 0 C0.66 0.33 1.32 0.66 2 1 C1.54965877 2.62723299 1.08944646 4.25173664 0.625 5.875 C0.36976563 6.77992188 0.11453125 7.68484375 -0.1484375 8.6171875 C-1 11 -1 11 -3 13 C-3.08086147 11.20906809 -3.13912702 9.41710372 -3.1875 7.625 C-3.22230469 6.62726562 -3.25710938 5.62953125 -3.29296875 4.6015625 C-3.14794922 3.31378906 -3.14794922 3.31378906 -3 2 C-2.01 1.34 -1.02 0.68 0 0 Z " fill="#933C74" transform="translate(387,603)"/>
<path d="M0 0 C0.66 0.33 1.32 0.66 2 1 C-3.48006479 6.94645329 -8.65214464 11.54320752 -16 15 C-16 14.34 -16 13.68 -16 13 C-14.31886306 11.6662784 -12.57804522 10.40728884 -10.8125 9.1875 C-6.81749017 6.36113351 -3.28128142 3.62072433 0 0 Z " fill="#BF3571" transform="translate(470,565)"/>
<path d="M0 0 C0.33 0.99 0.66 1.98 1 3 C-5 9 -5 9 -7.5625 9.0625 C-8.366875 9.041875 -9.17125 9.02125 -10 9 C-9.01 8.67 -8.02 8.34 -7 8 C-6.71125 7.401875 -6.4225 6.80375 -6.125 6.1875 C-4.64462682 3.30899659 -2.57721429 1.89900001 0 0 Z " fill="#F7ECEE" transform="translate(574,521)"/>
<path d="M0 0 C0.33 0.66 0.66 1.32 1 2 C0.29296875 3.875 0.29296875 3.875 -0.8125 6 C-1.16957031 6.70125 -1.52664063 7.4025 -1.89453125 8.125 C-3 10 -3 10 -5 12 C-7.5 11.875 -7.5 11.875 -10 11 C-11.3125 8.9375 -11.3125 8.9375 -12 7 C-11.34 7 -10.68 7 -10 7 C-9.67 7.66 -9.34 8.32 -9 9 C-7.02 8.67 -5.04 8.34 -3 8 C-2.87625 7.4225 -2.7525 6.845 -2.625 6.25 C-1.99351176 3.97664233 -1.11141809 2.0746471 0 0 Z " fill="#DB4384" transform="translate(574,514)"/>
<path d="M0 0 C0.33 0.99 0.66 1.98 1 3 C-0.86759004 6.51968892 -2.1486353 8.57431765 -5.75 10.375 C-6.4925 10.58125 -7.235 10.7875 -8 11 C-8.99 10.01 -9.98 9.02 -11 8 C-10.67 7.01 -10.34 6.02 -10 5 C-9.01 6.485 -9.01 6.485 -8 8 C-6.68 8 -5.36 8 -4 8 C-3.71125 7.4225 -3.4225 6.845 -3.125 6.25 C-1.5625 3.125 -1.5625 3.125 0 0 Z " fill="#D2457F" transform="translate(596,500)"/>
<path d="M0 0 C0.33 0 0.66 0 1 0 C1.0825 1.216875 1.165 2.43375 1.25 3.6875 C1.73758372 7.78465871 3.09510536 10.00139908 6 13 C5.01 13 4.02 13 3 13 C3 12.34 3 11.68 3 11 C2.34 11 1.68 11 1 11 C0.67 12.32 0.34 13.64 0 15 C0 10.05 0 5.1 0 0 Z " fill="#CD628F" transform="translate(579,501)"/>
<path d="M0 0 C0.66 0.33 1.32 0.66 2 1 C0.54550599 2.0055761 -0.91372443 3.00430435 -2.375 4 C-3.59316406 4.8353125 -3.59316406 4.8353125 -4.8359375 5.6875 C-7 7 -7 7 -9 7 C-9 6.34 -9 5.68 -9 5 C-2.25 1.125 -2.25 1.125 0 0 Z " fill="#CF4581" transform="translate(421,610)"/>
<path d="M0 0 C0.33 0.99 0.66 1.98 1 3 C1.99 3.33 2.98 3.66 4 4 C-1.2734375 7.22265625 -1.2734375 7.22265625 -3 8 C-3.66 7.67 -4.32 7.34 -5 7 C-3.35 4.69 -1.7 2.38 0 0 Z " fill="#AB3F7C" transform="translate(636,432)"/>
<path d="M0 0 C0.33 0.66 0.66 1.32 1 2 C-0.37393005 5.66381347 -1.1447677 7.56243929 -4.6875 9.375 C-5.450625 9.58125 -6.21375 9.7875 -7 10 C-5.33248852 6.05860922 -2.77289351 3.2107188 0 0 Z " fill="#ECDEE5" transform="translate(487,547)"/>
<path d="M0 0 C0.66 0.33 1.32 0.66 2 1 C0.68 4.63 -0.64 8.26 -2 12 C-2.33 12 -2.66 12 -3 12 C-2.14285714 3.42857143 -2.14285714 3.42857143 0 0 Z " fill="#463573" transform="translate(327,441)"/>
<path d="M0 0 C0.33 0 0.66 0 1 0 C1.875 2.5625 1.875 2.5625 2 6 C0.29275002 8.6317915 -1.76378008 10.80915266 -4 13 C-4.66 12.67 -5.32 12.34 -6 12 C-5.38125 11.505 -4.7625 11.01 -4.125 10.5 C-1.25011778 7.11778563 -0.86548583 4.32742915 0 0 Z " fill="#B8497D" transform="translate(669,427)"/>
<path d="M0 0 C-3.1254959 2.64465038 -6.08788267 3.84414715 -10 5 C-9 2 -9 2 -6.125 0.25 C-3 -1 -3 -1 0 0 Z " fill="#463477" transform="translate(435,331)"/>
<path d="M0 0 C0.66 0.33 1.32 0.66 2 1 C-0.64 2.98 -3.28 4.96 -6 7 C-6 6.01 -6 5.02 -6 4 C-3 1.8125 -3 1.8125 0 0 Z " fill="#3B2D71" transform="translate(406,344)"/>
</svg>
